<svg width="14" height="14" viewBox="0 0 14 14" fill="none" xmlns="http://www.w3.org/2000/svg">
<circle cx="7" cy="7" r="7" fill="#4E39A8"/>
<path d="M8.50104 3H6.13281C6.05896 3 6.02203 3 5.98943 3.01093C5.9606 3.0206 5.93435 3.03637 5.91256 3.05712C5.88792 3.08057 5.87141 3.11268 5.83838 3.17689L4.11022 6.53689C4.03135 6.69024 3.99191 6.76691 4.00138 6.82923C4.00966 6.88365 4.04062 6.93236 4.08699 6.96389C4.1401 7 4.22828 7 4.40464 7H6.95804L5.72363 11L10.7407 5.94212C10.91 5.77148 10.9946 5.68616 10.9996 5.61315C11.0038 5.54978 10.9769 5.48819 10.927 5.44721C10.8695 5.4 10.7476 5.4 10.5038 5.4H7.57524L8.50104 3Z" fill="white"/>
</svg>
