<svg width="16" height="16" viewBox="0 0 16 16" fill="none" xmlns="http://www.w3.org/2000/svg">
<path fill-rule="evenodd" clip-rule="evenodd" d="M11.3768 10.0993L16 14.7242L14.7242 16L10.0993 11.3759C9.04518 12.1665 7.73915 12.6392 6.31916 12.6392C2.83107 12.6392 0 9.81082 0 6.31827C0 4.97841 0.4211 3.73648 1.13421 2.71355C2.27643 1.07456 4.17093 0 6.32005 0C9.81082 0 12.641 2.82929 12.641 6.31916C12.641 7.56466 12.2751 8.7229 11.6528 9.70131C11.5664 9.83753 11.473 9.97018 11.3768 10.0993ZM2.01825 3.04111C1.32205 3.95186 0.903625 5.08696 0.903625 6.31821C0.903625 7.80319 1.50545 9.15106 2.47585 10.1304L2.47691 10.1316C2.48179 10.1373 2.48606 10.1423 2.49187 10.1473C2.49413 10.1507 2.49674 10.1526 2.49926 10.1545C2.50072 10.1556 2.50214 10.1567 2.50345 10.158C3.48275 11.1337 4.8324 11.7364 6.32005 11.7364C9.30603 11.7364 11.7365 9.30597 11.7365 6.3191C11.7365 4.17888 10.4856 2.33067 8.68017 1.45197C7.96528 1.10388 7.16581 0.903564 6.31916 0.903564C6.1322 0.903564 5.94792 0.912467 5.7663 0.931163C4.24037 1.08696 2.90318 1.88287 2.01825 3.04111Z" fill="#C4CCD8"/>
</svg>
