<svg width="60" height="16" viewBox="0 0 60 16" fill="none" xmlns="http://www.w3.org/2000/svg">
<g clip-path="url(#clip0_1602_7110)">
<mask id="mask0_1602_7110" style="mask-type:luminance" maskUnits="userSpaceOnUse" x="0" y="0" width="60" height="16">
<path d="M59.6891 0.00634766H0.00488281V15.8889H59.6891V0.00634766Z" fill="white"/>
</mask>
<g mask="url(#mask0_1602_7110)">
<path d="M8.51362 0.301025L1.27051 15.8889H4.78258L12.0025 0.301025H8.51362Z" fill="#734EE5"/>
<path d="M2.51471 5.70109L5.02243 0.301025H0.00488281L2.51471 5.70109Z" fill="#734EE5"/>
<path d="M17.7272 2.65006C16.8345 2.65006 16.0913 2.96353 15.4995 3.58839C14.9079 4.21324 14.6131 5.01782 14.6131 5.99585C14.6131 6.97388 14.9143 7.79308 15.5164 8.43047C16.1186 9.06577 16.8598 9.38551 17.7399 9.38551C18.62 9.38551 19.4012 9.07204 19.9992 8.44718C20.5971 7.82233 20.8961 7.00104 20.8961 5.98748C20.8961 4.97393 20.5971 4.19025 19.9992 3.57376C19.4012 2.95936 18.6431 2.65006 17.7293 2.65006M20.7677 0.301119H23.6607V11.7136H20.7677V10.5077C20.2034 11.0385 19.637 11.4231 19.0685 11.6571C18.5 11.8912 17.8851 12.0082 17.222 12.0082C15.7332 12.0082 14.4447 11.4377 13.3582 10.2925C12.2718 9.14936 11.7285 7.72829 11.7285 6.02928C11.7285 4.33027 12.2549 2.82352 13.3055 1.6971C14.3583 0.570703 15.6343 0.00854492 17.1377 0.00854492C17.8284 0.00854492 18.479 0.138113 19.0854 0.397249C19.6918 0.656385 20.2518 1.043 20.7677 1.56128V0.301119Z" fill="#734EE5"/>
<path d="M32.9612 1.89553L31.1694 3.66978C30.4408 2.95506 29.7819 2.5998 29.188 2.5998C28.8638 2.5998 28.6091 2.66876 28.4258 2.8046C28.2406 2.94044 28.15 3.10971 28.15 3.31451C28.15 3.46916 28.2089 3.60918 28.3247 3.73874C28.4406 3.86831 28.7291 4.04385 29.188 4.26747L30.2471 4.79201C31.3631 5.33745 32.1295 5.89334 32.5464 6.45968C32.9633 7.02601 33.1718 7.69057 33.1718 8.45335C33.1718 9.4669 32.7949 10.3133 32.0431 10.9925C31.2915 11.6717 30.2808 12.0102 29.0175 12.0102C27.3352 12.0102 25.9939 11.3603 24.9917 10.0604L26.773 8.13988C27.1119 8.53067 27.5099 8.84832 27.9647 9.08865C28.4195 9.32898 28.8238 9.45019 29.1775 9.45019C29.5586 9.45019 29.866 9.36033 30.0998 9.17642C30.3335 8.99461 30.4493 8.78562 30.4493 8.5474C30.4493 8.10644 30.0281 7.67594 29.188 7.25798L28.2131 6.77524C26.3476 5.84527 25.4148 4.68124 25.4148 3.28108C25.4148 2.38037 25.7665 1.60714 26.4697 0.96766C27.173 0.328178 28.0721 0.00634766 29.167 0.00634766C29.9144 0.00634766 30.6199 0.169353 31.2809 0.495363C31.9421 0.821373 32.5022 1.2874 32.9612 1.89553Z" fill="#734EE5"/>
<path d="M40.6716 2.64996C39.76 2.64996 39.0041 2.95925 38.4041 3.57365C37.804 4.18805 37.5028 4.99263 37.5028 5.98737C37.5028 6.98213 37.8019 7.82223 38.4041 8.44708C39.0041 9.07194 39.76 9.3854 40.6716 9.3854C41.5834 9.3854 42.2972 9.06775 42.9036 8.43036C43.508 7.79506 43.809 6.98213 43.809 5.99574C43.809 5.00935 43.5121 4.21522 42.9183 3.58828C42.3246 2.96342 41.575 2.64996 40.6716 2.64996ZM37.6313 0.301011V1.55908C38.1556 1.04289 38.7178 0.654188 39.3263 0.395052C39.9327 0.135916 40.5833 0.00634766 41.276 0.00634766C42.7814 0.00634766 44.0596 0.570596 45.1124 1.69492C46.1651 2.82132 46.6915 4.26538 46.6915 6.02709C46.6915 7.78879 46.1482 9.14716 45.0597 10.2903C43.9711 11.4334 42.6825 12.006 41.1918 12.006C40.5264 12.006 39.9096 11.889 39.3368 11.6549C38.7641 11.4209 38.1956 11.0384 37.6313 10.5055V15.8867H34.7593V0.301011H37.6313Z" fill="#734EE5"/>
<path d="M53.7557 2.64982C52.8629 2.64982 52.1197 2.96329 51.528 3.58814C50.9363 4.21299 50.6415 5.01757 50.6415 5.9956C50.6415 6.97363 50.9427 7.79283 51.5449 8.43022C52.147 9.06552 52.8882 9.38526 53.7683 9.38526C54.6484 9.38526 55.4296 9.0718 56.0276 8.44695C56.6255 7.82209 56.9246 7.00079 56.9246 5.98724C56.9246 4.97368 56.6255 4.19 56.0276 3.57351C55.4296 2.95911 54.6716 2.64982 53.7578 2.64982M56.7961 0.300874H59.6892V11.7133H56.7961V10.5075C56.2318 11.0383 55.6654 11.4228 55.0969 11.6569C54.5284 11.8909 53.9137 12.008 53.2483 12.008C51.7597 12.008 50.4711 11.4375 49.3845 10.2922C48.2981 9.14911 47.7549 7.72804 47.7549 6.02904C47.7549 4.33003 48.2813 2.82327 49.3319 1.69687C50.3847 0.570459 51.6607 0.00830078 53.164 0.00830078C53.8547 0.00830078 54.5053 0.137868 55.1117 0.397004C55.7181 0.656142 56.2782 1.04276 56.794 1.56103V0.300874H56.7961Z" fill="#734EE5"/>
</g>
</g>
<defs>
<clipPath id="clip0_1602_7110">
<rect width="59.6923" height="16" fill="white"/>
</clipPath>
</defs>
</svg>
